# xmcd
#
# Track frame offsets:
#	150
#	26834
#	48272
#	67858
#	83334
#	100366
#	117859
#	135608
#	155567
#
# Disc length: 2296 seconds
#
# Revision: 1
# Processed by: cddbd v1.5.2PL0 Copyright (c) Steve Scherf et al.
# Submitted via: audiograbber 1.83.01
#
DISCID=6a08f609
DTITLE=Various Artist - ASK1304B
DYEAR=2013
DGENRE=KARAOKE
TTITLE0=BRAD PAISLEY/COOL J - ACCIDENTAL RACIST
TTITLE1=BLAKE SHELTON/PISTOL ANNIE N FRIENDS - BOYS' ROUND HERE
TTITLE2=MACKLEMORE /RYAN LEWIS - COWBOY BOOTS
TTITLE3=PSY - GENTLEMAN
TTITLE4=BAND PERRY - MOTHER LIKE MINE
TTITLE5=MAROON 5 - ONE MORE NIGHT
TTITLE6=FLORIDA GEORGIA LINE - PARTY PEOPLE
TTITLE7=FALL OUT BOY - THE PHOENIX
TTITLE8=CHER LLOYD - WITH UR LOVE
EXTD=
EXTT0=
EXTT1=
EXTT2=
EXTT3=
EXTT4=
EXTT5=
EXTT6=
EXTT7=
EXTT8=
PLAYORDER=
